<?xml version="1.0" encoding="UTF-8" standalone="no"?>
<!-- Created with Inkscape (http://www.inkscape.org/) -->

<svg
   version="1.1"
   id="svg2"
   width="309"
   height="348"
   viewBox="0 0 309 348"
   sodipodi:docname="new_logo.svg"
   inkscape:version="1.1 (c68e22c387, 2021-05-23)"
   xmlns:inkscape="http://www.inkscape.org/namespaces/inkscape"
   xmlns:sodipodi="http://sodipodi.sourceforge.net/DTD/sodipodi-0.dtd"
   xmlns:xlink="http://www.w3.org/1999/xlink"
   xmlns="http://www.w3.org/2000/svg"
   xmlns:svg="http://www.w3.org/2000/svg">
  <defs
     id="defs6">
    <linearGradient
       inkscape:collect="always"
       xlink:href="#linearGradient12335-6-8"
       id="linearGradient18489"
       gradientUnits="userSpaceOnUse"
       x1="-10.980127"
       y1="16.911921"
       x2="61.617168"
       y2="90.174011"
       gradientTransform="matrix(3.7795275,0,0,3.7795275,57.71796,-48.033439)" />
    <linearGradient
       inkscape:collect="always"
       id="linearGradient12335-6-8">
      <stop
         style="stop-color:#feefb4;stop-opacity:1"
         offset="0"
         id="stop12331" />
      <stop
         style="stop-color:#f9dc1f;stop-opacity:1"
         offset="0.5"
         id="stop18071" />
      <stop
         style="stop-color:#fec400;stop-opacity:1"
         offset="1"
         id="stop12333" />
    </linearGradient>
    <filter
       style="color-interpolation-filters:sRGB;"
       inkscape:label="Drop Shadow"
       id="filter5973"
       x="-0.087398802"
       y="-0.15824067"
       width="1.2441617"
       height="1.2464633">
      <feFlood
         flood-opacity="0.498039"
         flood-color="rgb(0,0,0)"
         result="flood"
         id="feFlood5963" />
      <feComposite
         in="flood"
         in2="SourceGraphic"
         operator="in"
         result="composite1"
         id="feComposite5965" />
      <feGaussianBlur
         in="composite1"
         stdDeviation="3"
         result="blur"
         id="feGaussianBlur5967" />
      <feOffset
         dx="6"
         dy="-6"
         result="offset"
         id="feOffset5969" />
      <feComposite
         in="SourceGraphic"
         in2="offset"
         operator="over"
         result="fbSourceGraphic"
         id="feComposite5971" />
      <feColorMatrix
         result="fbSourceGraphicAlpha"
         in="fbSourceGraphic"
         values="0 0 0 -1 0 0 0 0 -1 0 0 0 0 -1 0 0 0 0 1 0"
         id="feColorMatrix1896" />
      <feFlood
         id="feFlood1898"
         flood-opacity="0.501961"
         flood-color="rgb(0,0,0)"
         result="flood"
         in="fbSourceGraphic" />
      <feComposite
         in2="fbSourceGraphic"
         id="feComposite1900"
         in="flood"
         operator="in"
         result="composite1" />
      <feGaussianBlur
         id="feGaussianBlur1902"
         in="composite1"
         stdDeviation="3.3"
         result="blur" />
      <feOffset
         id="feOffset1904"
         dx="6"
         dy="-6"
         result="offset" />
      <feComposite
         in2="offset"
         id="feComposite1906"
         in="offset"
         operator="atop"
         result="composite2" />
    </filter>
    <filter
       style="color-interpolation-filters:sRGB;"
       inkscape:label="Drop Shadow"
       id="filter5985"
       x="-0.054379709"
       y="-0.43162623"
       width="1.1519179"
       height="1.6722674">
      <feFlood
         flood-opacity="0.498039"
         flood-color="rgb(0,0,0)"
         result="flood"
         id="feFlood5975" />
      <feComposite
         in="flood"
         in2="SourceGraphic"
         operator="in"
         result="composite1"
         id="feComposite5977" />
      <feGaussianBlur
         in="composite1"
         stdDeviation="3"
         result="blur"
         id="feGaussianBlur5979" />
      <feOffset
         dx="6"
         dy="-6"
         result="offset"
         id="feOffset5981" />
      <feComposite
         in="SourceGraphic"
         in2="offset"
         operator="over"
         result="fbSourceGraphic"
         id="feComposite5983" />
      <feColorMatrix
         result="fbSourceGraphicAlpha"
         in="fbSourceGraphic"
         values="0 0 0 -1 0 0 0 0 -1 0 0 0 0 -1 0 0 0 0 1 0"
         id="feColorMatrix1927" />
      <feFlood
         id="feFlood1929"
         flood-opacity="0.501961"
         flood-color="rgb(0,0,0)"
         result="flood"
         in="fbSourceGraphic" />
      <feComposite
         in2="fbSourceGraphic"
         id="feComposite1931"
         in="flood"
         operator="in"
         result="composite1" />
      <feGaussianBlur
         id="feGaussianBlur1933"
         in="composite1"
         stdDeviation="3.3"
         result="blur" />
      <feOffset
         id="feOffset1935"
         dx="6"
         dy="-6"
         result="offset" />
      <feComposite
         in2="offset"
         id="feComposite1937"
         in="offset"
         operator="atop"
         result="composite2" />
    </filter>
    <linearGradient
       id="a"
       x1="-10.98"
       x2="61.617001"
       y1="16.912001"
       y2="90.174004"
       gradientTransform="matrix(3.7795276,0,0,3.7795276,57.718402,-48.033068)"
       gradientUnits="userSpaceOnUse">
      <stop
         stop-color="#feefb4"
         offset="0"
         id="stop873" />
      <stop
         stop-color="#f9dc1f"
         offset=".5"
         id="stop875" />
      <stop
         stop-color="#fec400"
         offset="1"
         id="stop877" />
    </linearGradient>
    <filter
       style="color-interpolation-filters:sRGB"
       inkscape:label="Drop Shadow"
       id="filter5985-9"
       x="-0.0258951"
       y="-0.21008357"
       width="1.0733694"
       height="1.3246746">
      <feFlood
         flood-opacity="0.498039"
         flood-color="rgb(0,0,0)"
         result="flood"
         id="feFlood5975-1" />
      <feComposite
         in="flood"
         in2="SourceGraphic"
         operator="in"
         result="composite1"
         id="feComposite5977-2" />
      <feGaussianBlur
         in="composite1"
         stdDeviation="3"
         result="blur"
         id="feGaussianBlur5979-6" />
      <feOffset
         dx="6"
         dy="-6"
         result="offset"
         id="feOffset5981-7" />
      <feComposite
         in="SourceGraphic"
         in2="offset"
         operator="over"
         result="composite2"
         id="feComposite5983-2" />
    </filter>
    <filter
       style="color-interpolation-filters:sRGB"
       inkscape:label="Drop Shadow"
       id="filter5973-2"
       x="-0.041618477"
       y="-0.077019794"
       width="1.117919"
       height="1.1190306">
      <feFlood
         flood-opacity="0.498039"
         flood-color="rgb(0,0,0)"
         result="flood"
         id="feFlood5963-2" />
      <feComposite
         in="flood"
         in2="SourceGraphic"
         operator="in"
         result="composite1"
         id="feComposite5965-3" />
      <feGaussianBlur
         in="composite1"
         stdDeviation="3"
         result="blur"
         id="feGaussianBlur5967-6" />
      <feOffset
         dx="6"
         dy="-6"
         result="offset"
         id="feOffset5969-2" />
      <feComposite
         in="SourceGraphic"
         in2="offset"
         operator="over"
         result="composite2"
         id="feComposite5971-7" />
    </filter>
    <linearGradient
       id="a-0"
       x1="-10.98"
       x2="61.617001"
       y1="16.912001"
       y2="90.174004"
       gradientTransform="matrix(3.7795276,0,0,3.7795276,57.718448,-48.033276)"
       gradientUnits="userSpaceOnUse">
      <stop
         stop-color="#feefb4"
         offset="0"
         id="stop1074" />
      <stop
         stop-color="#f9dc1f"
         offset=".5"
         id="stop1076" />
      <stop
         stop-color="#fec400"
         offset="1"
         id="stop1078" />
    </linearGradient>
  </defs>
  <sodipodi:namedview
     id="namedview4"
     pagecolor="#505050"
     bordercolor="#ffffff"
     borderopacity="1"
     inkscape:pageshadow="0"
     inkscape:pageopacity="0"
     inkscape:pagecheckerboard="1"
     showgrid="false"
     fit-margin-top="0"
     fit-margin-left="0"
     fit-margin-right="0"
     fit-margin-bottom="0"
     inkscape:zoom="2.3247127"
     inkscape:cx="141.73794"
     inkscape:cy="153.35228"
     inkscape:window-width="1920"
     inkscape:window-height="1017"
     inkscape:window-x="1912"
     inkscape:window-y="-8"
     inkscape:window-maximized="1"
     inkscape:current-layer="g8" />
  <g
     inkscape:label="printer"
     id="g8"
     style="display:inline">
    <rect
       style="display:inline;fill:url(#linearGradient18489);fill-opacity:1;stroke:none;stroke-width:0.999999;stroke-opacity:1;paint-order:fill markers stroke"
       id="rect1943"
       width="308.72803"
       height="308.85562"
       x="0"
       y="0.14436722"
       ry="64.251968"
       rx="64.251968"
       inkscape:label="back" />
    <path
       id="rect3029-7-5-4-2"
       style="display:inline;opacity:0.7;fill:#ffffff;fill-opacity:1;stroke-width:0.825369;paint-order:fill markers stroke;filter:url(#filter5985)"
       d="m 15.691406,217.94531 v 36.61914 a 25.43325,25.43325 0 0 0 -0.0332,0.4668 25.43325,25.43325 0 0 0 0.0332,0.4668 v 1.54101 h 0.109375 a 25.43325,25.43325 0 0 0 25.291016,23.42578 25.43325,25.43325 0 0 0 25.099609,-21.34961 v 20.04102 h 11.869141 v -9.95703 a 21.174877,21.174877 0 0 0 0.04102,0.0176 v -19.11524 a 9.206111,9.0676737 0 0 1 -0.002,-0.0273 9.206111,9.0676737 0 0 1 0.002,-0.0273 v -0.39258 h 0.0293 a 9.206111,9.0676737 0 0 1 8.84375,-8.60938 v -0.041 h 3.392579 a 25.43325,26.025302 0 0 0 -3.699219,13.43554 25.43325,26.025302 0 0 0 25.433593,26.02539 25.43325,26.025302 0 0 0 25.32617,-23.6914 v 3.18554 h 0.0449 a 20.475866,21.174877 0 0 0 20.44922,20.81836 20.475866,21.174877 0 0 0 14.1914,-5.92382 v 4.24804 h 11.93945 v -28.11718 a 10.147088,10.627007 0 0 1 -0.0351,-0.52344 10.147088,10.627007 0 0 1 10.14648,-10.62696 10.147088,10.627007 0 0 1 10.14649,10.62696 10.147088,10.627007 0 0 1 -0.0508,0.74218 v 17.22657 a 19.723085,20.798487 0 0 0 0.0469,-0.0176 v 10.69141 h 12.72852 v -16.96485 a 25.889503,25.889503 0 0 0 24.84961,18.63086 25.889503,25.889503 0 0 0 24.83398,-18.57812 h -12.71484 a 13.980223,15.275557 0 0 1 -12.11914,7.73632 13.980223,15.275557 0 0 1 -13.46875,-11.41992 h 26.97265 a 13.980223,15.275557 0 0 1 -0.002,0.01 h 11.33203 0.79492 a 25.889503,25.889503 0 0 0 0.20703,-2.90039 v 23.39648 h 11.86914 v -9.95703 a 21.174877,21.174877 0 0 0 0.041,0.0176 v -19.11524 a 9.206111,9.0676737 0 0 1 -0.002,-0.0273 9.206111,9.0676737 0 0 1 0.002,-0.0273 v -0.39258 h 0.0293 a 9.206111,9.0676737 0 0 1 8.84375,-8.60938 v -0.041 h 5.19921 v -11.9961 h -4.72851 a 21.174877,21.174877 0 0 0 -0.14649,-0.004 h -0.002 a 21.174877,21.174877 0 0 0 -0.0508,0.004 h -0.27148 v 0.0215 a 21.174877,21.174877 0 0 0 -20.74414,19.62109 h -0.0391 v 0.54297 a 21.174877,21.174877 0 0 0 -0.0703,0.98633 21.174877,21.174877 0 0 0 0.0703,0.98633 v 3.11914 a 25.889503,25.889503 0 0 0 -25.83593,-25.15235 25.889503,25.889503 0 0 0 -25.37696,21.05665 h -0.043 a 19.723085,20.798487 0 0 0 0.0566,-0.82227 19.723085,20.798487 0 0 0 -19.72265,-20.79883 19.723085,20.798487 0 0 0 -12.71094,4.91797 v -15.39844 h -11.97461 v 26.42969 13.59766 1.15234 0.83398 h -0.10156 a 11.491341,10.627007 0 0 1 -11.32031,9.2168 11.491341,10.627007 0 0 1 -11.31836,-9.2168 h -0.0781 v -0.64257 a 11.491341,10.627007 0 0 1 -0.0937,-0.76758 11.491341,10.627007 0 0 1 0.0937,-0.76758 v -16.79687 l 18.57813,0.20703 0.1289,-11.86719 -18.70703,-0.20899 v -11.16992 h -11.86719 v 34.16016 a 25.43325,26.025302 0 0 0 -25.32617,-23.69141 25.43325,26.025302 0 0 0 -19.927734,9.94727 v -9.35352 H 87.44514 a 21.174877,21.174877 0 0 0 -0.148437,-0.004 21.174877,21.174877 0 0 0 -0.05078,0.004 h -0.271485 v 0.0215 a 21.174877,21.174877 0 0 0 -20.74414,19.62109 h -0.03906 v 0.54297 a 21.174877,21.174877 0 0 0 -0.07031,0.98633 21.174877,21.174877 0 0 0 0.04492,0.63281 25.43325,25.43325 0 0 0 -25.074219,-21.21484 25.43325,25.43325 0 0 0 -13.914063,4.1582 v -15.811 z M 241.88477,239.375 a 13.980223,15.275557 0 0 1 12.97656,9.65234 h -25.95508 a 13.980223,15.275557 0 0 1 12.97852,-9.65234 z m -129.78321,0.97461 a 13.980223,14.090541 0 0 1 13.98047,14.08984 13.980223,14.090541 0 0 1 -13.98047,14.08985 13.980223,14.090541 0 0 1 -13.980466,-14.08985 13.980223,14.090541 0 0 1 13.980466,-14.08984 z m -71.009763,0.91211 a 13.980223,13.769994 0 0 1 13.978515,13.76953 13.980223,13.769994 0 0 1 -13.978515,13.76953 13.980223,13.769994 0 0 1 -13.980469,-13.76953 13.980223,13.769994 0 0 1 13.980469,-13.76953 z"
       inkscape:label="brother-shadow"
       transform="matrix(0.92210273,0,0,0.92210273,11.226103,18.957188)" />
    <path
       id="rect3029-7-5-4-2-9"
       style="display:inline;fill:#ffffff;fill-opacity:1;stroke-width:0.761075;paint-order:fill markers stroke"
       d="m 25.695191,219.92515 v 33.76661 a 23.452069,23.452069 0 0 0 -0.03061,0.43044 23.452069,23.452069 0 0 0 0.03061,0.43044 v 1.42097 h 0.100855 a 23.452069,23.452069 0 0 0 23.320915,21.60097 23.452069,23.452069 0 0 0 23.144418,-19.68653 v 18.47988 h 10.944567 v -9.18141 a 19.525412,19.525412 0 0 0 0.03782,0.0162 v -17.62621 a 8.4889801,8.3613266 0 0 1 -0.0018,-0.0252 8.4889801,8.3613266 0 0 1 0.0018,-0.0252 v -0.362 h 0.02702 a 8.4889801,8.3613266 0 0 1 8.154846,-7.93873 v -0.0378 h 3.128306 a 23.452069,23.998002 0 0 0 -3.41106,12.38895 23.452069,23.998002 0 0 0 23.452392,23.99808 23.452069,23.998002 0 0 0 23.35333,-21.8459 v 2.93739 h 0.0414 a 18.880852,19.525412 0 0 0 18.85628,19.19667 18.880852,19.525412 0 0 0 13.08593,-5.46237 v 3.91713 h 11.0094 V 250.3906 a 9.3566575,9.7991921 0 0 1 -0.0324,-0.48266 9.3566575,9.7991921 0 0 1 9.3561,-9.79915 9.3566575,9.7991921 0 0 1 9.35611,9.79915 9.3566575,9.7991921 0 0 1 -0.0469,0.68436 v 15.88467 a 18.18671,19.178342 0 0 0 0.0433,-0.0162 v 9.85858 h 11.737 v -15.64334 a 23.872781,23.872781 0 0 0 22.9139,17.17957 23.872781,23.872781 0 0 0 22.89948,-17.13093 h -11.72439 a 12.891202,14.085633 0 0 1 -11.17509,7.13368 12.891202,14.085633 0 0 1 -12.41957,-10.53034 h 24.87155 a 12.891202,14.085633 0 0 1 -0.002,0.009 h 10.44929 0.733 a 23.872781,23.872781 0 0 0 0.1909,-2.67446 v 21.57396 h 10.94457 v -9.18141 a 19.525412,19.525412 0 0 0 0.0378,0.0162 v -17.62621 a 8.4889801,8.3613266 0 0 1 -0.002,-0.0252 8.4889801,8.3613266 0 0 1 0.002,-0.0252 v -0.362 h 0.027 a 8.4889801,8.3613266 0 0 1 8.15485,-7.93873 v -0.0378 h 4.7942 v -11.06163 h -4.36017 a 19.525412,19.525412 0 0 0 -0.13508,-0.004 h -0.002 a 19.525412,19.525412 0 0 0 -0.0468,0.004 h -0.25034 v 0.0198 a 19.525412,19.525412 0 0 0 -19.12822,18.09266 h -0.0361 v 0.50068 a 19.525412,19.525412 0 0 0 -0.0648,0.90949 19.525412,19.525412 0 0 0 0.0648,0.9095 v 2.87617 a 23.872781,23.872781 0 0 0 -23.82338,-23.19305 23.872781,23.872781 0 0 0 -23.40016,19.41639 h -0.0396 a 18.18671,19.178342 0 0 0 0.0522,-0.75821 18.18671,19.178342 0 0 0 -18.18631,-19.17866 18.18671,19.178342 0 0 0 -11.72079,4.53487 v -14.19894 h -11.04183 v 24.37089 12.53844 1.06257 0.76902 h -0.0936 a 10.596197,9.7991921 0 0 1 -10.43849,8.49883 10.596197,9.7991921 0 0 1 -10.43669,-8.49883 h -0.072 v -0.59252 a 10.596197,9.7991921 0 0 1 -0.0864,-0.70779 10.596197,9.7991921 0 0 1 0.0864,-0.70778 V 241.1696 l 17.13094,0.1909 0.11886,-10.94277 -17.2498,-0.19271 v -10.29981 h -10.94277 v 31.49918 a 23.452069,23.998002 0 0 0 -23.35333,-21.84592 23.452069,23.998002 0 0 0 -18.37542,9.17241 v -8.62491 h -4.360177 a 19.525412,19.525412 0 0 0 -0.136875,-0.004 19.525412,19.525412 0 0 0 -0.04682,0.004 h -0.250337 v 0.0198 a 19.525412,19.525412 0 0 0 -19.128228,18.09267 h -0.03602 v 0.50067 a 19.525412,19.525412 0 0 0 -0.06483,0.9095 19.525412,19.525412 0 0 0 0.04142,0.58351 23.452069,23.452069 0 0 0 -23.121005,-19.56226 23.452069,23.452069 0 0 0 -12.830196,3.83429 v -14.57937 z m 208.573519,19.76038 a 12.891202,14.085633 0 0 1 11.96572,8.90045 h -23.93325 a 12.891202,14.085633 0 0 1 11.96753,-8.90045 z m -119.67345,0.89869 a 12.891202,12.992926 0 0 1 12.89143,12.99228 12.891202,12.992926 0 0 1 -12.89143,12.99229 12.891202,12.992926 0 0 1 -12.89143,-12.99229 12.891202,12.992926 0 0 1 12.89143,-12.99228 z m -65.478299,0.84106 A 12.891202,12.697349 0 0 1 62.006587,254.1222 12.891202,12.697349 0 0 1 49.116961,266.81912 12.891202,12.697349 0 0 1 36.225532,254.1222 12.891202,12.697349 0 0 1 49.116961,241.42528 Z"
       inkscape:label="brother" />
    <path
       id="rect1155"
       style="display:inline;opacity:0.7;fill:#ffffff;stroke-width:1.11469;paint-order:fill markers stroke;filter:url(#filter5973)"
       d="m 205.65382,28.294862 c -0.0724,0 -0.14327,0.01 -0.21484,0.01367 l -100.34375,0.255861 c -2.50645,0.0064 -4.49857,2.030856 -4.4668,4.537109 l 0.002,0.212891 c -0.0365,0.280259 -0.0606,0.564803 -0.0606,0.857422 V 69.720643 H 83.528823 c -8.010062,0 -14.458984,6.448922 -14.458984,14.458984 v 51.414063 c 0,8.01006 6.448922,14.45898 14.458984,14.45898 h 16.894537 v 41.77539 c -0.0445,0.16706 -0.0753,0.3399 -0.0742,0.52149 l 0.0293,5.30078 c 0.006,1.09519 0.89309,1.97097 1.98829,1.96484 l 1.61328,-0.01 c 0.24182,0.0419 0.48802,0.0742 0.74218,0.0742 h 0.9043 c 0.29979,0 0.59283,-0.03 0.875,-0.0879 l 25.75781,-0.14453 v 0.17969 l 43.24024,-0.26953 0.002,0.002 0.002,-0.002 h 0.0312 v -0.0312 l 34.99414,-34.45117 v -14.82227 h 17.08204 c 8.01006,0 14.45898,-6.44892 14.45898,-14.45898 V 84.179627 c -8e-5,-8.010062 -6.449,-14.458984 -14.45906,-14.458984 H 210.40382 V 34.199159 c 0.0363,-0.240996 0.0677,-0.483964 0.0645,-0.736328 l -0.008,-0.642579 c -0.0302,-2.382025 -1.88378,-4.297954 -4.21874,-4.478515 -0.10378,-0.01486 -0.20868,-0.02427 -0.31446,-0.03125 -0.0166,-1.36e-4 -0.0322,-0.0039 -0.0488,-0.0039 h -0.0293 c -0.0654,-0.0031 -0.12926,-0.01172 -0.19532,-0.01172 z m -4.75,9.716797 V 69.720643 H 110.06984 V 38.244081 Z M 84.550308,79.408143 H 226.73195 c 2.89696,0 5.22854,2.331552 5.22851,5.228516 v 50.078121 c 0,2.89696 -2.33155,5.22852 -5.22851,5.22852 h -16.20313 v -20.59961 l 5.08399,-0.0117 c 2.99193,-0.006 5.36875,-2.17307 5.32812,-4.85742 -0.0406,-2.68436 -2.48267,-4.84041 -5.47461,-4.83399 l -120.306637,0.25781 c -2.991935,0.006 -5.366795,2.17307 -5.326172,4.85743 0.04062,2.68435 2.482675,4.8404 5.474609,4.83398 l 5.11524,-0.0117 v 20.36524 H 84.550308 c -2.896964,0 -5.228516,-2.33156 -5.228516,-5.22852 V 84.636659 c 0,-2.896964 2.331552,-5.228516 5.228516,-5.228516 z m 121.603512,9.828125 a 5.2694683,5.2694683 0 0 0 -5.26953,5.269531 5.2694683,5.2694683 0 0 0 5.26953,5.269532 5.2694683,5.2694683 0 0 0 5.26954,-5.269532 5.2694683,5.2694683 0 0 0 -5.26954,-5.269531 z m -5.125,30.126952 v 40.84961 l -23.9746,-0.16992 c -0.18171,-0.0268 -0.36726,-0.0449 -0.55665,-0.0449 h -1.98437 c -1.98638,0 -3.60057,1.52614 -3.74414,3.47461 -0.0167,0.14539 -0.025,0.29338 -0.0254,0.44336 l -0.006,1.4668 c -3.4e-4,0.12186 0.007,0.24229 0.0176,0.36133 v 24.38867 l -23.60547,0.14648 c -0.24475,-0.10608 -0.5141,-0.16565 -0.79883,-0.16406 l -36.42773,0.20313 v -70.75977 z m -20.77343,50.00586 13.38476,0.0957 -13.38476,13.17774 z"
       inkscape:label="printer-shadow" />
    <path
       id="rect1155-7"
       style="display:inline;fill:#ffffff;stroke-width:1.11469;paint-order:fill markers stroke"
       d="m 205.65382,28.294859 c -0.0724,0 -0.14327,0.01 -0.21484,0.01367 L 105.09523,28.56439 c -2.50645,0.0064 -4.49857,2.030856 -4.4668,4.537109 l 0.002,0.212891 c -0.0365,0.280259 -0.0606,0.564803 -0.0606,0.857422 V 69.72064 H 83.528819 c -8.010062,0 -14.458984,6.448922 -14.458984,14.458984 v 51.414066 c 0,8.01006 6.448922,14.45898 14.458984,14.45898 h 16.894541 v 41.77539 c -0.0445,0.16706 -0.0753,0.3399 -0.0742,0.52149 l 0.0293,5.30078 c 0.006,1.09519 0.89309,1.97097 1.98829,1.96484 l 1.61328,-0.01 c 0.24182,0.0419 0.48802,0.0742 0.74218,0.0742 h 0.9043 c 0.29979,0 0.59283,-0.03 0.875,-0.0879 l 25.75781,-0.14453 v 0.17969 l 43.24024,-0.26953 0.002,0.002 0.002,-0.002 h 0.0312 v -0.0312 l 34.99414,-34.45117 v -14.82227 h 17.08204 c 8.01006,0 14.45898,-6.44892 14.45898,-14.45898 V 84.179624 c -8e-5,-8.010062 -6.449,-14.458984 -14.45906,-14.458984 H 210.40382 V 34.199156 c 0.0363,-0.240996 0.0677,-0.483964 0.0645,-0.736328 l -0.008,-0.642579 c -0.0302,-2.382025 -1.88378,-4.297954 -4.21874,-4.478515 -0.10378,-0.01486 -0.20868,-0.02427 -0.31446,-0.03125 -0.0166,-1.36e-4 -0.0322,-0.0039 -0.0488,-0.0039 h -0.0293 c -0.0654,-0.0031 -0.12926,-0.01172 -0.19532,-0.01172 z m -4.75,9.716797 V 69.72064 H 110.06984 V 38.244078 Z M 84.550304,79.40814 H 226.73195 c 2.89696,0 5.22854,2.331552 5.22851,5.228516 v 50.078124 c 0,2.89696 -2.33155,5.22852 -5.22851,5.22852 h -16.20313 v -20.59961 l 5.08399,-0.0117 c 2.99193,-0.006 5.36875,-2.17307 5.32812,-4.85742 -0.0406,-2.68436 -2.48267,-4.84041 -5.47461,-4.83399 l -120.306641,0.25781 c -2.99193,0.006 -5.36679,2.17307 -5.32617,4.85743 0.0406,2.68435 2.48267,4.8404 5.47461,4.83398 l 5.115241,-0.0117 v 20.36524 H 84.550304 c -2.896964,0 -5.228516,-2.33156 -5.228516,-5.22852 V 84.636656 c 0,-2.896964 2.331552,-5.228516 5.228516,-5.228516 z m 121.603516,9.828125 a 5.2694683,5.2694683 0 0 0 -5.26953,5.269531 5.2694683,5.2694683 0 0 0 5.26953,5.269532 5.2694683,5.2694683 0 0 0 5.26954,-5.269532 5.2694683,5.2694683 0 0 0 -5.26954,-5.269531 z m -5.125,30.126955 v 40.84961 l -23.9746,-0.16992 c -0.18171,-0.0268 -0.36726,-0.0449 -0.55665,-0.0449 h -1.98437 c -1.98638,0 -3.60057,1.52614 -3.74414,3.47461 -0.0167,0.14539 -0.025,0.29338 -0.0254,0.44336 l -0.006,1.4668 c -3.4e-4,0.12186 0.007,0.24229 0.0176,0.36133 v 24.38867 l -23.60547,0.14648 c -0.24475,-0.10608 -0.5141,-0.16565 -0.79883,-0.16406 l -36.42773,0.20313 v -70.75977 z m -20.77343,50.00586 13.38476,0.0957 -13.38476,13.17774 z"
       inkscape:label="printer" />
  </g>
</svg>
